PathFileType	4	(X/Y/Z)	C:\Users\°ÂÌØÂü\Desktop\20210112\bx_y_0_502-Unnamed.trc
DataRate	CameraRate	NumFrames	NumMarkers	Units	OrigDataRate	OrigDataStartFrame	OrigNumFrames
50.00	50.00	       7	0	mm	50.00	421	       560
Frame#	Time	
		

421	8.400	-748.26758	106.34762	1849.82788	-746.22662	294.22836	1536.14978	-654.30426	287.76257	882.89624	-590.28351	4.82377	810.45642	-808.15314	99.42138	1049.29834	-734.89410	251.16096	640.91974	-604.60565	226.39699	1078.40527	-679.46954	209.93982	534.97986	-774.60236	254.78870	502.82184	-663.58997	-67.24046	163.30380	-517.68134	-72.46423	143.05693	-680.41406	82.80619	574.70361	-604.70947	20.07461	167.05672	-675.65381	54.56065	158.37335	-711.34167	152.58751	216.26479	-796.17145	172.16649	184.35014	-771.66113	222.94083	204.75891	-594.59412	221.90724	173.39368	-882.53522	296.16849	144.69659	-559.29974	257.91061	165.93340	-666.93457	299.10324	160.13947	-628.98389	305.40558	162.58725	-528.00739	304.49124	146.85538	-721.89026	-69.47552	1544.25244	-592.21851	223.09669	820.60852	-766.05396	-6.71205	208.77109	-795.24060	53.92085	174.52753	-753.86377	-33.05096	489.40149	-560.05090	-36.25094	164.66382	-876.03320	-78.59757	141.50241	-608.88806	-0.29556	1056.79370	-696.66626	-26.09155	612.81683	-705.39490	-23.25051	567.69794	-676.07684	174.66794	157.89021	-621.93225	-77.27921	159.35225	-677.96014	-50.09185	735.89789	-692.01672	148.57248	576.71790	-658.66101	-66.76717	868.29822				-657.56360	21.78015	518.80890	-713.90753	77.67615	216.58498				-736.13812	248.00333	576.69720	
422	8.420	-747.86041	106.04932	1849.87476	-745.97028	294.16772	1536.21252	-653.69373	287.81250	882.71246	-590.27332	4.75211	810.56433	-808.15314	99.42138	1049.29834	-734.89410	251.16096	640.91974	-604.42804	226.45012	1078.39282	-679.41797	209.95802	534.91461	-774.46246	254.72461	502.78442	-663.47937	-67.07526	163.20335	-517.81519	-72.72898	142.85381	-680.42316	82.56261	574.71143	-604.64282	20.07343	167.10742	-675.65381	54.56065	158.37335	-711.36487	152.64963	216.36160	-796.21899	172.15700	184.27834	-771.57147	222.86606	204.79146	-594.78351	221.67349	173.39722	-882.44165	296.28186	144.84575	-559.26154	257.84885	165.90746	-666.96521	299.05090	160.18567	-629.17218	305.71289	162.63173	-528.08289	304.50589	146.80527	-721.80164	-69.49715	1544.28943	-592.22449	223.12073	820.51300	-766.11487	-6.64650	208.79581	-795.27631	53.80177	174.67839	-754.09515	-33.02469	489.50528	-560.05090	-36.25094	164.66382	-875.87164	-78.64655	141.31004	-608.77234	-0.47625	1056.77112	-696.45148	-26.08394	612.57660	-705.46338	-23.20812	567.59375	-676.06415	174.74220	157.94864	-621.93225	-77.27921	159.35225	-677.92224	-50.12860	735.37488	-692.01752	148.45775	576.52649	-658.65564	-66.91117	868.26245				-657.55719	21.65904	518.64191	-713.87549	77.55910	216.63182				-736.06433	247.74466	576.41345	
423	8.440	-747.34418	106.24941	1849.74097	-745.66760	294.10098	1536.07227	-653.98077	287.72202	882.98303	-590.21448	4.67005	810.67523	-808.12585	99.42285	1049.37195	-734.89410	251.16096	640.91974	-604.33667	226.50816	1078.13574	-679.40118	209.88281	534.91614	-774.60236	254.78870	502.82184	-663.49884	-67.11593	163.26642	-517.87408	-72.61460	142.71825	-680.36798	82.68777	574.88647	-604.67133	19.99201	167.01880	-675.64447	54.42286	158.34404	-711.62927	152.65865	216.16035	-796.21899	172.15700	184.27834	-771.70416	222.95523	204.78084	-594.74249	221.79614	173.48756	-882.52155	296.05740	144.66100	-559.38672	257.86447	165.95349	-666.82813	299.27295	160.13721	-629.03668	305.57339	162.85202	-528.03589	304.71042	146.77905	-721.65338	-69.55995	1544.29150	-592.18738	223.12172	820.58472	-766.11487	-6.64650	208.79581	-795.18896	53.86951	174.49963	-753.82709	-32.95756	489.34683	-559.98407	-36.32966	164.64612	-876.05151	-78.64049	141.43311	-608.67847	-0.40604	1056.67798	-696.23114	-26.11078	612.77026	-705.40662	-23.40595	567.60986	-675.92102	174.68074	157.86029	-621.94495	-77.11019	159.40428	-677.66095	-50.20938	735.56195	-692.03558	148.17021	576.77496	-658.66101	-66.76717	868.29822				-657.71893	21.52773	518.57019	-713.90753	77.67615	216.58498				-736.13812	248.00333	576.69720	
424	8.460	-747.13281	106.33252	1849.67322	-745.45685	294.12695	1536.27258	-653.75134	287.65311	882.82025	-590.21448	4.67005	810.67523	-807.79205	99.48842	1049.51477	-734.88037	251.03101	640.83795	-604.19379	226.24493	1078.27527	-679.37268	209.99008	535.00989	-774.66595	254.73245	502.73892	-663.48114	-66.98415	163.31247	-517.73572	-72.35222	142.92180	-680.39832	82.51328	574.58160	-604.64282	20.07343	167.10742	-675.65509	54.64174	158.32840	-711.53571	152.62820	216.25508	-796.16101	172.11148	184.30841	-771.99518	222.81711	205.18819	-594.74249	221.79614	173.48756	-882.84949	296.16013	144.54318	-559.18542	257.91046	166.00740	-666.80743	299.15283	160.23361	-629.08362	305.69690	162.71698	-528.12799	304.54727	146.78020	-721.57941	-69.58198	1544.21948	-591.96375	222.92789	820.50153	-766.11487	-6.64650	208.79581	-795.18518	53.80643	174.43019	-753.93408	-33.04631	489.51053	-560.02893	-36.07862	164.55078	-876.03320	-78.59757	141.50241	-608.61035	-0.54620	1056.63269	-696.58679	-26.09687	612.71307	-705.38806	-23.34598	567.68665	-676.06415	174.74220	157.94864	-621.91589	-77.18827	159.43027	-677.67242	-50.17179	735.56036	-691.79260	148.25832	576.60095	-658.65564	-66.91117	868.26245				-657.57227	21.58141	518.51611	-713.90753	77.67615	216.58498				-736.11169	247.69983	576.53461	
425	8.480	-746.92365	106.40250	1849.68774	-745.09686	294.29135	1536.22449	-653.92871	287.38171	882.45575	-590.06451	4.65275	810.54340	-807.72809	99.32887	1049.37402	-734.89410	251.16096	640.91974	-603.83527	226.29128	1078.24219	-679.37268	209.99008	535.00989	-774.62512	254.81633	502.85049	-663.49884	-67.11593	163.26642	-517.73413	-72.62297	143.00145	-680.53809	82.68546	574.83832	-604.71600	19.99819	166.98994	-675.76465	54.53265	158.23764	-711.53571	152.62820	216.25508	-796.26965	172.17001	184.30026	-771.77264	222.85443	204.76901	-594.78351	221.67349	173.39722	-882.53406	296.09598	144.57982	-559.38312	258.00458	166.17863	-666.86499	299.03604	160.18695	-629.07104	305.58478	162.57478	-528.03589	304.71042	146.77905	-721.29999	-69.79559	1544.04102	-592.01642	222.98509	820.53094	-766.19910	-6.55311	208.81296	-795.18896	53.86951	174.49963	-754.13586	-33.01978	489.24139	-559.98407	-36.32966	164.64612	-876.05151	-78.64049	141.43311	-608.56189	-0.56100	1056.66321	-696.29572	-26.32156	612.85547	-705.46924	-23.32837	567.54999	-675.90497	174.66255	157.90262	-621.88171	-77.31384	159.36626	-677.86908	-50.20455	735.49646	-692.25885	148.20378	576.60150	-658.53735	-66.86868	868.19135				-657.56567	21.59908	518.80737	-714.53125	77.03183	215.92337				-736.11169	247.69983	576.53461	
426	8.500	-746.67041	106.35446	1849.69800	-744.83636	293.93091	1536.13904	-653.55957	287.37268	882.83862	-589.94928	4.63063	810.54657	-807.72656	99.28796	1049.45996	-734.74597	250.87666	640.81494	-603.58569	225.97449	1078.27429	-679.37268	209.99008	535.00989	-774.48315	254.70732	502.85889	-663.44513	-66.99740	163.22368	-517.75439	-72.49066	142.77942	-680.44513	82.49074	574.72455	-604.72552	20.06915	167.03908	-675.68408	54.45852	158.26840	-711.53571	152.62820	216.25508	-796.09894	172.19460	184.14638	-771.78888	222.86089	204.86241	-594.78351	221.67349	173.39722	-882.43616	296.14734	144.72641	-559.37213	257.88251	165.85381	-666.80017	299.04565	160.27649	-629.08362	305.69690	162.71698	-528.20087	304.78625	146.78091	-721.32697	-69.69919	1544.05286	-591.92395	222.83182	820.56348	-766.11487	-6.64650	208.79581	-795.28064	53.97228	174.44676	-754.14270	-33.04724	489.47961	-559.93970	-36.24264	164.59796	-876.03320	-78.59757	141.50241	-608.51416	-0.65942	1056.70874	-696.06897	-26.49479	613.05396	-705.41516	-23.32937	567.63422	-675.91229	174.65100	158.10516	-622.04291	-77.11015	159.53732	-678.18036	-50.11637	735.21942	-692.01752	148.45775	576.52649	-658.53735	-66.86868	868.19135				-657.56360	21.78015	518.80890	-713.81921	77.61996	216.51604				-736.11169	247.69983	576.53461	
427	8.520	-746.41040	106.48460	1849.81921	-744.64276	294.08325	1536.15808	-653.32959	286.89389	882.38641	-589.78503	4.46127	810.76392	-807.70587	99.41270	1049.61145	-734.58514	250.95267	640.83228	-603.56665	226.01225	1078.21399	-679.40118	209.88281	534.91614	-774.48090	254.70360	502.88098	-663.55414	-67.10396	163.27098	-517.73572	-72.35222	142.92180	-680.35950	82.59148	574.77789	-604.51947	19.94761	166.92731	-675.65381	54.56065	158.37335	-711.45276	152.59918	216.18141	-796.31549	172.10538	184.28162	-771.91766	222.81984	205.20082	-594.69324	221.74910	173.35692	-882.62177	296.10751	144.65683	-559.12598	257.86835	166.04311	-666.90472	299.23700	160.04419	-629.10431	305.72336	162.60551	-528.12799	304.54727	146.78020	-721.13525	-69.81181	1543.94617	-591.86456	222.87021	820.51300	-766.12634	-6.58860	208.83633	-795.32800	53.85310	174.70627	-754.04767	-33.06161	489.41431	-560.05090	-36.25094	164.66382	-876.03320	-78.59757	141.50241	-608.49670	-0.60657	1056.61548	-696.12115	-26.56719	612.84467	-705.51093	-23.44721	567.57251	-675.94543	174.65544	157.77255	-621.93225	-77.27921	159.35225	-677.82025	-50.42612	735.46918	-692.06079	148.02374	576.56268	-658.65564	-66.91117	868.26245				-657.75201	21.48839	518.56805	-713.98724	77.64108	216.50858				-735.93530	247.82988	576.76715	
